<?xml version="1.0" standalone="no"?>
<!DOCTYPE svg PUBLIC "-//W3C//DTD SVG 20010904//EN"
 "http://www.w3.org/TR/2001/REC-SVG-20010904/DTD/svg10.dtd">
<svg version="1.0" xmlns="http://www.w3.org/2000/svg"
 width="500.000000pt" height="500.000000pt" viewBox="0 0 500.000000 500.000000"
 preserveAspectRatio="xMidYMid meet">
<metadata>
Created by potrace 1.14, written by Peter Selinger 2001-2017
</metadata>
<g transform="translate(0.000000,500.000000) scale(0.100000,-0.100000)"
fill="#000000" stroke="none">
<path d="M2470 4591 c-5 -11 -10 -72 -10 -136 0 -123 8 -155 40 -155 32 0 40
32 40 155 0 123 -8 155 -40 155 -11 0 -24 -9 -30 -19z"/>
<path d="M2961 4478 c-10 -24 -33 -85 -51 -136 -30 -84 -32 -95 -18 -109 33
-32 51 -8 101 128 38 103 46 133 36 145 -22 27 -49 16 -68 -28z"/>
<path d="M1866 4464 c-9 -8 -16 -17 -16 -19 0 -16 113 -242 126 -252 18 -13
40 -8 48 13 6 15 -87 227 -112 257 -19 21 -26 21 -46 1z"/>
<path d="M1444 4165 c-3 -8 -4 -19 -2 -24 6 -19 190 -201 202 -201 16 0 36 21
36 38 0 8 -41 57 -92 108 -91 94 -131 115 -144 79z"/>
<path d="M2370 4169 c-332 -38 -642 -248 -800 -542 -190 -352 -172 -762 49
-1097 53 -81 185 -215 272 -276 l76 -53 6 -212 c4 -117 7 -286 7 -376 l0 -165
134 -286 c298 -637 356 -757 369 -766 8 -5 21 -7 29 -4 8 4 126 242 261 531
l247 525 0 375 0 376 73 50 c153 103 302 283 372 449 65 155 80 237 79 432 0
160 -3 183 -28 265 -33 110 -91 234 -151 324 -55 82 -196 222 -284 281 -133
89 -304 150 -474 169 -107 12 -129 12 -237 0z m312 -83 c235 -45 457 -185 605
-380 63 -83 138 -242 165 -351 32 -128 32 -342 0 -469 -27 -106 -94 -254 -156
-340 -59 -82 -174 -191 -268 -255 l-78 -52 0 -134 0 -135 -90 0 -90 0 6 28 c4
15 56 216 115 447 116 454 117 461 56 452 -27 -4 -87 9 -87 18 0 2 16 26 35
55 25 38 35 63 35 91 0 53 -35 89 -85 89 -73 0 -121 -86 -97 -174 13 -51 7
-59 -66 -86 -65 -25 -103 -21 -146 14 l-30 23 36 43 c51 59 78 121 78 177 -1
73 -44 113 -120 113 -54 -1 -84 -16 -111 -56 -26 -40 -26 -136 1 -206 11 -29
20 -54 20 -56 0 -2 -21 -12 -47 -24 -57 -25 -132 -28 -166 -5 l-25 16 19 40
c28 59 26 135 -6 166 -24 24 -57 31 -90 19 -42 -16 -58 -113 -30 -180 17 -42
15 -47 -24 -64 -16 -6 -32 -18 -34 -25 -3 -6 46 -215 108 -464 l113 -451 -94
0 -94 0 0 138 0 137 -71 44 c-137 84 -264 222 -344 374 -304 577 30 1283 672
1421 88 19 291 20 385 2z m-147 -909 c14 -11 16 -21 11 -49 -6 -35 -61 -128
-75 -128 -11 0 -31 72 -31 111 0 66 49 99 95 66z m-395 -127 c0 -16 -4 -30
-10 -30 -5 0 -10 14 -10 30 0 17 5 30 10 30 6 0 10 -13 10 -30z m715 20 c3 -5
-2 -26 -11 -46 -15 -32 -19 -34 -24 -18 -4 10 -6 25 -4 32 11 36 14 42 23 42
5 0 13 -4 16 -10z m-628 -246 c50 -9 104 0 169 30 l56 26 33 -29 c70 -61 163
-65 262 -12 55 30 56 30 80 11 13 -10 37 -22 53 -25 27 -6 29 -10 23 -33 -3
-15 -52 -205 -108 -422 l-101 -395 -196 -3 -195 -2 -110 439 c-109 437 -110
440 -90 454 18 12 25 11 55 -9 19 -13 50 -26 69 -30z m663 -1486 c-21 -46 -70
-150 -109 -233 l-71 -150 -210 0 -210 0 -71 150 c-39 83 -88 187 -109 233
l-39 82 429 0 429 0 -39 -82z"/>
<path d="M3413 4087 c-96 -96 -107 -118 -71 -141 15 -9 33 4 118 89 105 104
121 136 71 143 -18 3 -44 -17 -118 -91z"/>
<path d="M3702 3716 c-122 -56 -146 -74 -137 -98 12 -31 36 -27 152 27 128 59
155 82 128 109 -9 9 -19 16 -23 15 -4 0 -58 -24 -120 -53z"/>
<path d="M1110 3645 c-27 -33 -7 -49 125 -98 71 -26 135 -45 142 -42 21 8 27
35 11 51 -13 13 -240 104 -259 104 -4 0 -12 -7 -19 -15z"/>
<path d="M1026 3147 c-10 -7 -17 -22 -14 -33 3 -17 16 -20 111 -27 123 -9 190
0 195 26 8 40 -14 47 -147 47 -89 0 -133 -4 -145 -13z"/>
<path d="M3690 3145 c-6 -8 -10 -22 -8 -32 3 -16 17 -18 153 -18 140 0 150 1
153 19 8 37 -24 46 -159 46 -98 0 -129 -3 -139 -15z"/>
<path d="M3609 2724 c-23 -28 3 -47 132 -96 131 -49 164 -50 157 -5 -2 18 -25
30 -128 69 -69 26 -130 47 -136 48 -6 0 -17 -7 -25 -16z"/>
<path d="M1282 2596 c-122 -56 -146 -74 -137 -98 12 -31 35 -27 147 24 109 49
148 72 148 89 0 10 -29 39 -38 38 -4 0 -58 -24 -120 -53z"/>
<path d="M1533 2207 c-74 -74 -94 -100 -91 -118 7 -50 39 -34 143 71 85 85 98
103 89 118 -23 36 -45 25 -141 -71z"/>
<path d="M3332 2288 c-7 -7 -12 -17 -12 -23 0 -6 44 -55 99 -109 102 -101 132
-116 139 -67 3 18 -17 44 -90 117 -93 93 -113 105 -136 82z"/>
</g>
</svg>
